<?xml version="1.0" encoding="utf-8"?>
<!-- Generator: Adobe Illustrator 14.0.0, SVG Export Plug-In . SVG Version: 6.00 Build 43363)  -->
<!DOCTYPE svg PUBLIC "-//W3C//DTD SVG 1.1//EN" "http://www.w3.org/Graphics/SVG/1.1/DTD/svg11.dtd">
<svg version="1.1" id="Layer_1" xmlns="http://www.w3.org/2000/svg" xmlns:xlink="http://www.w3.org/1999/xlink" x="0px" y="0px"
	 width="626.304px" height="267.999px" viewBox="0 0 626.304 267.999" enable-background="new 0 0 626.304 267.999"
	 xml:space="preserve">
<g>
	<path fill="#FFFFFF" d="M25.919,115.999L2.16,18.944h18.863l9.216,44.063c2.448,11.808,4.752,24.192,6.336,33.839h0.288
		c1.584-10.224,4.32-21.743,7.056-33.983l10.512-43.919h18.575l9.648,44.639c2.304,11.52,4.464,22.32,5.904,32.832h0.288
		c1.728-10.656,4.032-21.744,6.624-33.695l10.08-43.775h18l-26.208,97.054H78.479l-10.08-45.647
		c-2.448-11.088-4.176-20.304-5.472-30.815h-0.288c-1.584,10.368-3.456,19.728-6.336,30.815l-11.231,45.647H25.919z"/>
	<path fill="#FFFFFF" d="M150.031,18.944v97.054h-17.712V18.944H150.031z"/>
	<path fill="#FFFFFF" d="M166.144,18.944h17.712v82.223h39.887v14.832h-57.599V18.944z"/>
	<path fill="#FFFFFF" d="M232.988,18.944H250.7v82.223h39.887v14.832h-57.599V18.944z"/>
	<path fill="#FFFFFF" d="M10.224,136.24c7.92-1.152,17.712-2.016,28.224-2.016c18.144,0,30.527,3.744,39.455,11.231
		c9.504,7.632,15.264,19.296,15.264,35.711c0,17.424-5.904,30.24-15.12,38.591c-9.648,8.784-25.055,13.248-43.919,13.248
		c-10.224,0-18-0.576-23.904-1.296V136.24z M27.936,218.607c2.448,0.432,6.192,0.432,9.792,0.432
		c23.04,0.144,36.72-12.672,36.72-37.295c0.144-21.312-12.24-33.695-34.416-33.695c-5.616,0-9.504,0.432-12.096,1.008V218.607z"/>
	<path fill="#FFFFFF" d="M122.903,134.944v56.591c0,19.008,7.92,27.792,19.872,27.792c12.816,0,20.448-8.784,20.448-27.792v-56.591
		h17.711v55.439c0,29.952-15.408,43.2-38.735,43.2c-22.463,0-37.007-12.528-37.007-43.056v-55.583H122.903z"/>
	<path fill="#FFFFFF" d="M194.671,231.999v-97.055h20.304l25.056,41.615c6.336,10.8,12.096,22.032,16.56,32.544h0.288
		c-1.296-12.96-1.584-25.488-1.584-40.32v-33.839h16.416v97.055h-18.432l-25.343-42.768c-6.192-10.656-12.528-22.464-17.28-33.407
		l-0.576,0.144c0.72,12.527,1.008,25.343,1.008,41.327v34.704H194.671z"/>
	<path fill="#FFFFFF" d="M307.609,204.495l-8.352,27.504H280.97l31.104-97.055h22.607l31.536,97.055h-19.152l-8.784-27.504H307.609z
		 M335.401,191.104l-7.632-23.904c-1.872-5.904-3.456-12.528-4.896-18.144h-0.288c-1.44,5.616-3.024,12.384-4.608,18.144
		l-7.488,23.904H335.401z"/>
	<path fill="#FFFFFF" d="M382.833,231.999l-23.759-97.055h18.864l9.216,44.063c2.447,11.808,4.752,24.192,6.336,33.839h0.288
		c1.583-10.224,4.319-21.743,7.056-33.983l10.512-43.919h18.575l9.648,44.639c2.304,11.52,4.464,22.32,5.903,32.832h0.288
		c1.729-10.655,4.032-21.744,6.624-33.695l10.08-43.775h17.999l-26.207,97.055h-18.864l-10.079-45.647
		c-2.448-11.088-4.176-20.304-5.472-30.815h-0.288c-1.584,10.368-3.456,19.728-6.336,30.815l-11.232,45.647H382.833z"/>
	<path fill="#FFFFFF" d="M499.039,204.495l-8.352,27.504H472.4l31.103-97.055h22.608l31.535,97.055h-19.152l-8.783-27.504H499.039z
		 M526.831,191.104l-7.632-23.904c-1.872-5.904-3.456-12.528-4.896-18.144h-0.288c-1.439,5.616-3.023,12.384-4.607,18.144
		l-7.488,23.904H526.831z"/>
	<path fill="#FFFFFF" d="M575.759,231.999v-40.464l-30.671-56.591h20.304l11.52,24.912c3.313,7.2,5.76,12.672,8.496,19.295h0.288
		c2.304-6.192,5.04-12.24,8.352-19.295l11.664-24.912h20.016l-32.256,56.159v40.896H575.759z"/>
</g>
</svg>
