<?xml version="1.0" encoding="utf-8"?>
<!-- Generator: Adobe Illustrator 14.0.0, SVG Export Plug-In . SVG Version: 6.00 Build 43363)  -->
<!DOCTYPE svg PUBLIC "-//W3C//DTD SVG 1.1//EN" "http://www.w3.org/Graphics/SVG/1.1/DTD/svg11.dtd">
<svg version="1.1" id="Layer_1" xmlns="http://www.w3.org/2000/svg" xmlns:xlink="http://www.w3.org/1999/xlink" x="0px" y="0px"
	 width="693.828px" height="131.866px" viewBox="0 0 693.828 131.866" enable-background="new 0 0 693.828 131.866"
	 xml:space="preserve">
<g>
	<path fill="#FFFFFF" d="M2.52,18.604h13.125l18.457,64.395l19.395-59.707h9.902l19.395,59.707l18.516-64.395h13.066l-24.492,82.793
		H77.578L58.477,43.154l-19.16,58.242H27.012L2.52,18.604z"/>
	<path fill="#FFFFFF" d="M122.645,18.604h12.656v12.773h-12.656V18.604z M122.938,42.861h12.07v58.535h-12.07V42.861z"/>
	<path fill="#FFFFFF" d="M149.221,99.492c-2.012-2.012-3.018-5.341-3.018-9.99V18.604h12.07v67.617c0,1.758,0.41,3.097,1.23,4.014
		c0.82,0.918,2.168,1.377,4.043,1.377c0.976,0,2.382-0.137,4.219-0.41l0.059,10.195c-3.633,0.741-6.914,1.113-9.844,1.113
		C154.152,102.51,151.232,101.504,149.221,99.492z"/>
	<path fill="#FFFFFF" d="M178.292,99.492c-2.012-2.012-3.018-5.341-3.018-9.99V18.604h12.07v67.617c0,1.758,0.41,3.097,1.23,4.014
		c0.82,0.918,2.168,1.377,4.043,1.377c0.976,0,2.382-0.137,4.219-0.41l0.059,10.195c-3.633,0.741-6.914,1.113-9.844,1.113
		C183.224,102.51,180.304,101.504,178.292,99.492z"/>
	<path fill="#FFFFFF" d="M240.548,18.604h23.438c9.258,0,17.08,1.631,23.467,4.893c6.387,3.262,11.21,8.027,14.473,14.297
		c3.261,6.27,4.893,13.877,4.893,22.822c0,8.594-1.661,15.938-4.98,22.031c-3.321,6.094-8.194,10.743-14.619,13.945
		c-6.426,3.203-14.209,4.805-23.35,4.805h-23.32V18.604z M262.697,89.795c10.195,0,17.998-2.363,23.408-7.09
		c5.41-4.726,8.115-12.265,8.115-22.617c0-6.992-1.055-12.675-3.164-17.051c-2.109-4.375-5.391-7.607-9.844-9.697
		c-4.453-2.089-10.254-3.135-17.402-3.135h-10.664v59.59H262.697z"/>
	<path fill="#FFFFFF" d="M326.487,99.229c-3.125-2.188-5.42-5.077-6.885-8.672c-1.465-3.594-2.217-7.559-2.256-11.895V42.861h12.012
		v33.984c0,4.453,1.064,7.979,3.193,10.576c2.128,2.599,5.166,3.896,9.111,3.896c4.453,0,7.939-1.309,10.459-3.926
		c2.52-2.616,3.779-6.504,3.779-11.66V42.861h12.012v58.535h-12.012v-7.852c-2.071,2.969-4.678,5.206-7.822,6.709
		c-3.145,1.503-6.416,2.256-9.814,2.256C333.538,102.51,329.612,101.416,326.487,99.229z"/>
	<path fill="#FFFFFF" d="M379.292,42.861h12.07v7.852c2.07-2.968,4.667-5.205,7.793-6.709c3.125-1.503,6.387-2.256,9.785-2.256
		c4.688,0,8.603,1.094,11.748,3.281c3.144,2.188,5.458,5.079,6.943,8.672c1.484,3.594,2.246,7.559,2.285,11.895v35.801h-12.07
		V67.412c0-4.414-1.065-7.929-3.193-10.547c-2.129-2.617-5.167-3.926-9.111-3.926c-4.453,0-7.93,1.309-10.43,3.926
		c-2.5,2.618-3.75,6.504-3.75,11.66v32.871h-12.07V42.861z"/>
	<path fill="#FFFFFF" d="M478.529,44.736c3.711,1.992,6.543,4.795,8.497,8.408c1.953,3.614,2.93,7.822,2.93,12.627v35.625h-10.02
		l-0.82-9.141c-1.875,3.281-4.58,5.811-8.115,7.588s-7.236,2.666-11.104,2.666c-4.023,0-7.617-0.742-10.781-2.227
		s-5.645-3.642-7.441-6.475c-1.797-2.832-2.695-6.182-2.695-10.049c0-5.938,2.109-10.234,6.328-12.891
		c4.218-2.656,10-3.984,17.343-3.984h16.289c-0.078-3.476-0.547-6.259-1.406-8.35c-0.859-2.089-2.256-3.642-4.189-4.658
		c-1.934-1.015-4.6-1.523-7.998-1.523c-3.32,0-6.221,0.782-8.701,2.344c-2.48,1.563-4.521,3.672-6.123,6.328l-9.257-6.68
		c2.968-4.102,6.376-7.226,10.224-9.375c3.848-2.148,8.447-3.223,13.799-3.223C470.404,41.748,474.818,42.744,478.529,44.736z
		 M470.414,90.205c2.363-1.327,4.268-3.105,5.713-5.332s2.383-4.688,2.813-7.383v-1.816h-15.586c-3.906,0-6.875,0.771-8.906,2.314
		c-2.031,1.544-3.047,3.584-3.047,6.123c0,2.461,0.938,4.424,2.813,5.889s4.57,2.197,8.086,2.197
		C465.345,92.197,468.05,91.533,470.414,90.205z"/>
	<path fill="#FFFFFF" d="M494.865,42.861h12.891l10.957,40.078l12.598-40.078h10.488l12.598,40.02l11.016-40.02h12.949
		l-17.813,58.535h-11.016l-12.949-41.543l-13.066,41.543h-10.957L494.865,42.861z"/>
	<path fill="#FFFFFF" d="M619.707,44.736c3.711,1.992,6.541,4.795,8.496,8.408c1.953,3.614,2.93,7.822,2.93,12.627v35.625h-10.02
		l-0.82-9.141c-1.875,3.281-4.58,5.811-8.115,7.588c-3.537,1.777-7.236,2.666-11.104,2.666c-4.023,0-7.617-0.742-10.781-2.227
		s-5.646-3.642-7.441-6.475c-1.797-2.832-2.695-6.182-2.695-10.049c0-5.938,2.109-10.234,6.328-12.891
		c4.219-2.656,9.998-3.984,17.344-3.984h16.289c-0.08-3.476-0.549-6.259-1.406-8.35c-0.859-2.089-2.256-3.642-4.189-4.658
		c-1.934-1.015-4.6-1.523-7.998-1.523c-3.32,0-6.221,0.782-8.701,2.344c-2.482,1.563-4.521,3.672-6.123,6.328l-9.258-6.68
		c2.967-4.102,6.377-7.226,10.225-9.375c3.846-2.148,8.445-3.223,13.799-3.223C611.582,41.748,615.994,42.744,619.707,44.736z
		 M611.592,90.205c2.363-1.327,4.268-3.105,5.713-5.332c1.443-2.227,2.381-4.688,2.813-7.383v-1.816h-15.586
		c-3.906,0-6.877,0.771-8.906,2.314c-2.031,1.544-3.047,3.584-3.047,6.123c0,2.461,0.938,4.424,2.813,5.889s4.57,2.197,8.086,2.197
		C606.523,92.197,609.227,91.533,611.592,90.205z"/>
	<path fill="#FFFFFF" d="M657.617,100.107l-23.555-57.246h13.301l16.699,43.359l15.996-43.359h13.301l-33.047,83.672H647.07
		L657.617,100.107z"/>
</g>
</svg>
