<?xml version="1.0" standalone="no"?>
<!DOCTYPE svg PUBLIC "-//W3C//DTD SVG 20010904//EN"
 "http://www.w3.org/TR/2001/REC-SVG-20010904/DTD/svg10.dtd">
<svg version="1.0" xmlns="http://www.w3.org/2000/svg"
 width="640.000000pt" height="640.000000pt" viewBox="0 0 640.000000 640.000000"
 preserveAspectRatio="xMidYMid meet">
<metadata>
Created by potrace 1.11, written by Peter Selinger 2001-2013
</metadata>
<g transform="translate(0.000000,640.000000) scale(0.100000,-0.100000)"
fill="#000000" stroke="none">
<path d="M3057 5594 c-1 -1 -36 -4 -77 -8 -41 -3 -84 -8 -95 -10 -11 -2 -42
-7 -70 -10 -27 -4 -87 -16 -132 -26 -46 -11 -93 -22 -105 -24 -13 -2 -57 -16
-98 -31 -41 -14 -83 -28 -94 -30 -10 -2 -25 -10 -34 -17 -8 -7 -17 -12 -19
-10 -1 1 -5 1 -8 1 -3 -1 -8 -2 -12 -3 -32 -7 -103 -41 -103 -49 0 -6 -3 -7
-6 -4 -9 8 -204 -92 -204 -105 0 -5 -4 -7 -10 -3 -5 3 -18 -3 -30 -15 -11 -11
-22 -19 -25 -17 -2 1 -15 -7 -27 -18 -13 -10 -25 -19 -28 -18 -13 1 -134 -88
-157 -116 -7 -8 -13 -11 -13 -6 0 4 -14 -6 -30 -23 -17 -18 -33 -33 -38 -34
-15 -4 -208 -188 -197 -188 4 0 -7 -12 -24 -26 -17 -14 -28 -31 -24 -36 3 -7
1 -8 -6 -4 -6 4 -14 0 -18 -9 -3 -10 -15 -27 -27 -40 -83 -90 -233 -315 -219
-329 3 -3 1 -6 -5 -6 -12 0 -126 -220 -114 -220 4 0 2 -4 -4 -8 -8 -6 -58
-125 -59 -142 0 -3 -3 -9 -7 -15 -9 -15 -32 -99 -29 -109 1 -5 -3 -12 -8 -16
-6 -3 -12 -19 -15 -36 -2 -16 -7 -37 -11 -46 -4 -10 -8 -29 -9 -43 0 -14 -3
-25 -6 -25 -3 0 -6 -8 -6 -17 -1 -17 -7 -51 -19 -113 -6 -27 -13 -83 -23 -175
-8 -81 -8 -356 1 -430 10 -88 16 -136 22 -170 3 -16 7 -43 10 -60 10 -67 27
-141 36 -151 5 -6 6 -13 4 -16 -3 -3 -1 -18 6 -34 6 -16 13 -38 15 -49 7 -27
10 -37 17 -55 3 -8 13 -35 21 -60 26 -80 68 -175 80 -182 6 -4 8 -8 3 -8 -7 0
60 -140 72 -150 3 -3 7 -12 9 -20 2 -8 9 -22 16 -30 7 -8 16 -23 19 -32 4 -10
11 -18 17 -18 6 0 9 -4 5 -10 -3 -5 3 -18 14 -29 11 -11 17 -21 15 -24 -2 -2
5 -12 16 -22 11 -10 20 -24 20 -32 0 -7 7 -16 15 -19 8 -4 15 -12 15 -18 0 -7
15 -29 34 -49 18 -20 31 -38 29 -41 -2 -2 7 -13 21 -24 15 -11 26 -24 26 -28
1 -5 19 -27 40 -49 22 -22 40 -43 40 -47 0 -5 7 -8 16 -8 8 0 13 -3 11 -8 -6
-9 100 -112 107 -104 3 3 6 -2 6 -10 0 -15 26 -33 43 -29 5 1 6 -2 4 -6 -3 -5
1 -14 9 -21 8 -7 14 -11 14 -8 0 3 11 -5 24 -17 36 -34 96 -80 130 -101 17
-10 32 -22 34 -27 2 -5 10 -9 18 -9 8 0 14 -4 14 -10 0 -5 7 -10 15 -10 8 0
15 -5 15 -11 0 -5 5 -7 10 -4 5 3 10 2 10 -3 0 -5 12 -15 28 -23 15 -8 47 -26
71 -41 24 -15 48 -25 52 -22 5 3 9 1 9 -4 0 -5 15 -15 33 -23 17 -7 44 -21 59
-31 16 -11 32 -16 38 -13 5 3 10 2 10 -3 0 -8 36 -22 55 -22 3 0 21 -9 41 -20
19 -11 39 -18 44 -15 4 3 10 1 12 -4 1 -6 14 -12 28 -15 14 -2 41 -11 61 -20
20 -8 49 -17 65 -20 16 -2 30 -5 32 -6 1 -2 7 -4 12 -5 6 -1 11 -3 13 -5 3 -2
8 -3 132 -28 55 -11 120 -23 145 -26 25 -3 70 -9 100 -12 114 -14 461 -8 545
10 12 2 48 7 80 11 33 4 64 10 70 13 5 4 22 7 36 8 37 3 185 43 254 70 11 4
22 8 25 9 25 6 59 18 75 25 11 5 49 21 85 36 36 14 91 39 122 55 32 16 61 29
64 28 4 0 10 3 13 8 6 8 37 27 84 51 15 7 27 18 27 23 0 5 3 8 8 7 10 -4 72
35 72 45 0 4 4 6 9 2 5 -3 17 5 26 17 8 13 19 22 23 20 7 -3 44 22 68 45 7 7
17 13 22 13 6 0 12 3 14 8 2 4 16 17 32 30 16 12 25 22 20 22 -5 0 6 9 24 20
17 11 32 25 32 32 0 6 2 9 5 6 8 -7 95 80 95 94 0 6 3 9 6 6 7 -8 133 124 134
140 0 6 4 12 8 12 8 0 80 90 81 103 1 4 9 16 19 26 28 31 38 45 68 92 42 66
65 109 57 109 -4 0 3 9 15 20 12 11 25 32 28 45 3 14 10 25 15 25 5 0 8 3 7 8
-1 4 10 30 25 58 14 28 23 54 20 58 -4 3 -2 6 3 6 8 0 31 47 39 80 1 3 6 16
12 30 20 48 66 185 67 200 1 9 5 20 8 26 4 6 9 21 11 35 3 13 14 69 26 124 34
165 44 273 45 480 0 170 -8 273 -30 390 -3 17 -7 44 -10 60 -2 17 -7 41 -11
55 -10 42 -11 44 -16 70 -3 14 -11 41 -17 60 -6 19 -13 44 -16 55 -7 29 -10
38 -17 55 -3 8 -13 35 -21 60 -26 80 -68 175 -80 182 -6 4 -8 8 -3 8 7 0 -60
140 -72 150 -3 3 -7 12 -9 20 -2 8 -9 22 -16 30 -7 8 -16 23 -19 33 -4 9 -11
17 -17 17 -6 0 -9 4 -5 9 3 5 -3 17 -12 27 -10 10 -18 22 -18 27 0 5 -7 14
-15 20 -8 7 -16 19 -18 27 -2 8 -10 20 -18 26 -7 6 -14 15 -14 21 0 5 -15 26
-34 46 -18 20 -31 38 -29 41 2 2 -7 13 -21 24 -15 11 -26 24 -26 28 -1 5 -19
27 -40 49 -22 22 -40 43 -40 47 0 5 -8 8 -17 8 -9 0 -13 3 -10 6 9 10 -145
154 -157 147 -5 -3 -7 -2 -4 3 3 5 0 15 -8 22 -8 7 -14 10 -14 7 0 -2 -13 9
-30 27 -16 17 -30 27 -30 23 0 -4 -11 4 -25 19 -13 14 -28 26 -33 26 -5 0 -15
7 -22 15 -7 9 -15 13 -18 10 -3 -3 -12 4 -19 15 -8 11 -18 18 -23 15 -4 -3
-10 -1 -12 4 -10 25 -339 207 -352 194 -3 -4 -6 -2 -6 4 0 10 -46 28 -62 25
-5 -1 -8 2 -8 7 0 5 -10 11 -22 14 -13 3 -70 22 -126 41 -57 20 -108 34 -113
30 -5 -3 -9 -1 -9 4 0 8 -56 23 -145 39 -233 42 -268 45 -468 48 -86 1 -158 0
-160 -1z"/>
</g>
</svg>
